<?xml version="1.0" encoding="utf-8"?>
<!-- Generator: Adobe Illustrator 26.2.1, SVG Export Plug-In . SVG Version: 6.00 Build 0)  -->
<svg version="1.1" id="Layer_1" xmlns="http://www.w3.org/2000/svg" xmlns:xlink="http://www.w3.org/1999/xlink" x="0px" y="0px"
	 viewBox="0 0 350.3 334.4" style="enable-background:new 0 0 350.3 334.4;" xml:space="preserve">
<style type="text/css">
	.st0{fill:#327397;}
</style>
<path class="st0" d="M225.3,113.3H214v-6.4c0-5.9-4.8-10.6-10.6-10.6h-43.8c-5.9,0-10.6,4.8-10.6,10.6v6.4h-11.4
	c-12.9,0-23.4,10.5-23.4,23.4v55.6c0,12.9,10.5,23.4,23.4,23.4h87.7c12.9,0,23.4-10.5,23.4-23.4v-55.6
	C248.8,123.8,238.3,113.3,225.3,113.3L225.3,113.3z M181.5,185.3c-15.5,0-28-12.5-28-28s12.5-28,28-28s28,12.5,28,28
	S196.9,185.3,181.5,185.3z M223.3,138.3c-2.2,0-4-1.8-4-4s1.8-4,4-4s4,1.8,4,4S225.5,138.3,223.3,138.3z"/>
</svg>
