<?xml version="1.0" encoding="UTF-8"?><svg id="Layer_1" xmlns="http://www.w3.org/2000/svg" viewBox="0 0 350.3 334.38"><defs><style>.cls-1{fill:#5e95be;}</style></defs><path class="cls-1" d="M188.91,129.6c-2.21-1.41-4.63-2.72-7.25-3.93-2.21-1.11-4.7-2.14-7.47-3.09-2.77-.96-5.56-1.68-8.38-2.19v13.58c.91,.2,1.86,.48,2.87,.83,1.01,.35,2.06,.68,3.17,.98,4.93,1.51,9.38,3.17,13.36,4.98,3.97,1.81,7.37,3.95,10.19,6.41,2.82,2.47,4.98,5.46,6.49,8.98,1.51,3.52,2.26,7.8,2.26,12.83,0,5.94-1.03,10.99-3.09,15.17-2.06,4.18-4.78,7.6-8.15,10.26-3.37,2.67-7.22,4.68-11.55,6.04-4.33,1.36-8.81,2.19-13.43,2.49v18.26h-12.07v-18.57c-6.94-.6-13.83-1.96-20.68-4.07-6.84-2.11-12.98-4.78-18.41-8l12.68-25.81c2.72,1.71,5.63,3.32,8.75,4.83,2.61,1.31,5.66,2.59,9.13,3.85,3.47,1.26,7.02,2.14,10.64,2.64v-13.28c-3.12-.8-6.24-1.76-9.36-2.87-4.73-1.61-8.81-3.34-12.23-5.21-3.42-1.86-6.24-3.97-8.45-6.34s-3.85-5.06-4.91-8.08c-1.06-3.02-1.58-6.49-1.58-10.41,0-5.43,.9-10.24,2.71-14.41,1.81-4.17,4.28-7.77,7.4-10.79s6.77-5.43,10.94-7.24c4.17-1.81,8.63-2.97,13.36-3.47v-15.24h12.07v15.39c3.32,.4,6.54,1.01,9.66,1.81,3.12,.81,6.11,1.73,8.98,2.79,2.87,1.06,5.56,2.17,8.08,3.32,2.51,1.16,4.83,2.24,6.94,3.24l-12.68,24.3Zm-36.98-4.53c0,1.51,.5,2.74,1.51,3.7,1.01,.96,2.51,1.84,4.53,2.64v-11.47c-4.03,.51-6.04,2.22-6.04,5.13Zm20.53,46.79c0-1.41-.6-2.64-1.81-3.7-1.21-1.06-2.82-1.99-4.83-2.79v11.17c2.42-.2,4.13-.7,5.13-1.51,1.01-.8,1.51-1.86,1.51-3.17Z"/></svg>