<?xml version="1.0" encoding="UTF-8"?><svg id="Layer_1" xmlns="http://www.w3.org/2000/svg" viewBox="0 0 350.3 334.38"><defs><style>.cls-1{fill:#5e95be;}</style></defs><path class="cls-1" d="M229.9,131.28c0-1.77-.65-3.36-1.69-4.63,.51,1.24,.38,2.7-.73,3.89l-20.74,22.03-13.84,14.7,13.84,14.7,20.74,22.03c1.06,1.13,1.21,2.5,.78,3.71,1.01-1.26,1.64-2.83,1.64-4.57v-71.86Z"/><path class="cls-1" d="M124.64,204.01l20.74-22.03,13.84-14.7-13.84-14.7-20.74-22.03c-1.12-1.19-1.25-2.66-.73-3.9-1.05,1.27-1.7,2.87-1.7,4.65v71.86c0,1.75,.64,3.33,1.65,4.59-.44-1.21-.29-2.59,.78-3.72Z"/><path class="cls-1" d="M218.71,212.41h1.56c2.01,0,3.49-1.14,4.09-2.59,.02-.06,.03-.12,.05-.18-1.34,1.67-3.38,2.77-5.7,2.77Z"/><path class="cls-1" d="M127.7,209.66c.02,.06,.02,.12,.05,.18,.6,1.44,2.08,2.57,4.08,2.57h1.55c-2.31,0-4.34-1.09-5.68-2.75Z"/><path class="cls-1" d="M223.63,205.93l-20.74-22.03-13.84-14.7-1.65,1.75-7.99,8.49c-1.75,1.86-4.96,1.86-6.71,0l-9.36-9.95-.28-.29-13.84,14.7-20.74,22.03c-1.07,1.13-1.22,2.52-.78,3.72,1.35,1.66,3.38,2.75,5.68,2.75h85.32c2.31,0,4.35-1.09,5.7-2.77,.43-1.2,.28-2.58-.78-3.71Z"/><path class="cls-1" d="M179.41,173.66l6.02-6.39,1.97-2.1,15.49-16.45,20.74-22.03c1.11-1.18,1.25-2.64,.73-3.89-.6-1.45-2.08-2.59-4.09-2.59h-88.44c-2,0-3.48,1.13-4.08,2.57-.52,1.25-.39,2.72,.73,3.9l20.74,22.03,14.12,15,3.35,3.55,6.02,6.39c1.75,1.86,4.96,1.86,6.71,0Z"/></svg>