<?xml version="1.0" encoding="UTF-8"?><svg id="Layer_1" xmlns="http://www.w3.org/2000/svg" viewBox="0 0 350.3 334.38"><defs><style>.cls-1{fill:#5e95be;}</style></defs><path class="cls-1" d="M165.28,134.97v-21.77h7.39v-3.37h-7.39v-5.28c1.82-.72,3.11-2.5,3.11-4.58,0-2.72-2.21-4.93-4.93-4.93s-4.93,2.21-4.93,4.93c0,2.08,1.29,3.85,3.11,4.58v5.28h-7.39v3.37h7.39v21.68c-6.87-.81-12.73-5.16-18.02-9.36,.12,.49,.24,.95,.36,1.39,3.3,11.5,10.51,7.5,19.86,16.25,3.18-6.11,14.88-5.08,18.82-15.59,.24-.64,.45-1.31,.63-2.04-6.72,6.42-12.67,9.08-18.02,9.45Zm-4.67-34.99c0-1.58,1.28-2.85,2.85-2.85s2.85,1.28,2.85,2.85-1.28,2.85-2.85,2.85-2.85-1.28-2.85-2.85Z"/><path class="cls-1" d="M163.46,79.65c-23.2,0-42,18.8-42,42s44,94,44,94c0,0,40-70.8,40-94s-18.8-42-42-42Zm0,68.5c-16.02,0-29-12.98-29-29s12.98-29,29-29,29,12.98,29,29-12.98,29-29,29Z"/></svg>