<?xml version="1.0" encoding="UTF-8"?><svg id="Layer_1" xmlns="http://www.w3.org/2000/svg" viewBox="0 0 350.3 334.38"><defs><style>.cls-1{fill:#327397;}.cls-2{fill:#4a697d;}.cls-3{fill:#5e95be;}</style></defs><path class="cls-1" d="M220.75,159.52c9.42-5.3,15.8-15.39,15.82-26.97,.03-17.12-13.83-31.02-30.95-31.05-13.32-.02-24.7,8.36-29.1,20.15,10.41,5.02,17.58,15.67,17.56,27.99-.02,11.59-6.4,21.67-15.82,26.97l28.12,.05-17.17,29.62,16.22,28.21,21.72-37.46,21.72-37.46-28.12-.05Z"/><path class="cls-2" d="M147.81,176.56c-9.41-5.34-15.75-15.44-15.73-27.03,.02-12.16,7.05-22.67,17.26-27.73-4.57-11.38-15.7-19.43-28.72-19.46-17.12-.03-31.02,13.83-31.05,30.95-.02,11.59,6.32,21.69,15.73,27.03l-28.03-.05,21.59,37.54,21.59,37.54,16.65-28.73-17.31-30.1,28.03,.05Z"/><path class="cls-3" d="M178.26,176.61c9.42-5.3,15.8-15.39,15.82-26.97,.02-12.32-7.15-22.98-17.56-27.99-4.05-1.95-8.59-3.05-13.39-3.06-4.96,0-9.64,1.15-13.8,3.21-10.21,5.06-17.23,15.57-17.26,27.73-.02,11.59,6.32,21.69,15.73,27.03l-28.03-.05,17.31,30.1,4.28,7.44,21.59,37.54,21.72-37.46,4.55-7.85,17.17-29.62-28.12-.05Z"/></svg>