<?xml version="1.0" encoding="UTF-8"?><svg id="Layer_1" xmlns="http://www.w3.org/2000/svg" viewBox="0 0 350.3 334.38"><defs><style>.cls-1{fill:#5e95be;}</style></defs><rect class="cls-1" x="118.56" y="154.11" width="18.83" height="18.95"/><rect class="cls-1" x="147.06" y="154.11" width="18.83" height="18.95"/><rect class="cls-1" x="176.06" y="154.11" width="18.83" height="18.95"/><rect class="cls-1" x="147.06" y="181.11" width="18.83" height="18.95"/><rect class="cls-1" x="118.56" y="181.11" width="18.83" height="18.95"/><path class="cls-1" d="M205.55,115.56h-15.73v-9.5c0-3.31-2.69-6-6-6s-6,2.69-6,6v9.5h-40v-9.5c0-3.31-2.69-6-6-6s-6,2.69-6,6v9.5h-15.23c-9.52,0-17.27,7.75-17.27,17.27v73.96c0,9.52,7.75,17.27,17.27,17.27h94.96c9.52,0,17.27-7.75,17.27-17.27v-73.96c0-9.52-7.75-17.27-17.27-17.27Zm11.27,91.23c0,6.21-5.06,11.27-11.27,11.27H110.59c-6.21,0-11.27-5.06-11.27-11.27v-61.73h117.5v61.73Z"/></svg>