<?xml version="1.0" encoding="UTF-8"?><svg id="Layer_1" xmlns="http://www.w3.org/2000/svg" viewBox="0 0 350.3 334.38"><defs><style>.cls-1{fill:#5e95be;}</style></defs><path class="cls-1" d="M164.35,118.65l7.73,23.8c1.31,4.02,5.05,6.74,9.28,6.74h25.02c9.45,0,13.38,12.1,5.74,17.65l-20.24,14.71c-3.42,2.48-4.85,6.89-3.54,10.91l7.73,23.8c2.92,8.99-7.37,16.47-15.02,10.91l-20.24-14.71c-3.42-2.48-8.05-2.48-11.47,0l-20.24,14.71c-7.65,5.56-17.94-1.92-15.02-10.91l7.73-23.8c1.31-4.02-.12-8.42-3.54-10.91l-20.24-14.71c-7.65-5.56-3.72-17.65,5.74-17.65h25.02c4.23,0,7.97-2.72,9.28-6.74l7.73-23.8c2.92-8.99,15.64-8.99,18.56,0Z"/></svg>